<svg xmlns="http://www.w3.org/2000/svg" xmlns:xlink="http://www.w3.org/1999/xlink" width="500" zoomAndPan="magnify" viewBox="0 0 375 374.999991" height="500" preserveAspectRatio="xMidYMid meet" version="1.0"><defs><g/><clipPath id="62fbe18801"><path d="M 162 150.457031 L 212.96875 150.457031 L 212.96875 194.707031 L 162 194.707031 Z M 162 150.457031 " clip-rule="nonzero"/></clipPath><clipPath id="55cde9b4f5"><path d="M 172 168 L 203 168 L 203 194.707031 L 172 194.707031 Z M 172 168 " clip-rule="nonzero"/></clipPath></defs><rect x="-37.5" width="450" fill="#ffffff" y="-37.499999" height="449.999989" fill-opacity="1"/><rect x="-37.5" width="450" fill="#ffffff" y="-37.499999" height="449.999989" fill-opacity="1"/><g clip-path="url(#62fbe18801)"><path fill="#90caea" d="M 172.226562 194.707031 L 162.046875 194.707031 L 187.496094 150.808594 L 212.945312 194.707031 L 193.476562 194.707031 L 187.496094 184.527344 L 181.644531 194.707031 Z M 172.226562 194.707031 " fill-opacity="1" fill-rule="nonzero"/><path fill="#90caea" d="M 212.945312 194.707031 L 187.496094 150.808594 L 162.046875 194.707031 L 172.226562 194.707031 L 187.496094 168.367188 L 202.890625 194.707031 Z M 212.945312 194.707031 " fill-opacity="1" fill-rule="nonzero"/></g><g clip-path="url(#55cde9b4f5)"><path fill="#004aad" d="M 202.890625 194.707031 L 187.496094 168.242188 L 172.226562 194.707031 L 181.644531 194.707031 L 187.496094 184.527344 L 193.476562 194.707031 Z M 202.890625 194.707031 " fill-opacity="1" fill-rule="nonzero"/></g><g fill="#000000" fill-opacity="1"><g transform="translate(135.574214, 212.183014)"><g><path d="M 12.28125 0 L 5.65625 0 C 5.601562 0 5.578125 -0.0351562 5.578125 -0.109375 C 5.585938 -0.359375 5.613281 -0.703125 5.65625 -1.140625 C 5.695312 -1.585938 5.738281 -2.035156 5.78125 -2.484375 C 5.832031 -2.929688 5.875 -3.273438 5.90625 -3.515625 C 5.914062 -3.546875 5.941406 -3.566406 5.984375 -3.578125 C 6.023438 -3.585938 6.054688 -3.59375 6.078125 -3.59375 C 6.109375 -3.582031 6.191406 -3.578125 6.328125 -3.578125 C 6.460938 -3.578125 6.597656 -3.578125 6.734375 -3.578125 C 6.878906 -3.578125 6.972656 -3.578125 7.015625 -3.578125 C 7.015625 -3.578125 7.070312 -3.601562 7.1875 -3.65625 C 7.300781 -3.71875 7.359375 -3.816406 7.359375 -3.953125 C 7.347656 -4.015625 7.316406 -4.210938 7.265625 -4.546875 C 7.222656 -4.878906 7.171875 -5.257812 7.109375 -5.6875 C 7.046875 -6.113281 6.988281 -6.519531 6.9375 -6.90625 C 6.894531 -7.300781 6.867188 -7.597656 6.859375 -7.796875 C 6.835938 -8.085938 6.789062 -8.332031 6.71875 -8.53125 C 6.65625 -8.738281 6.554688 -8.84375 6.421875 -8.84375 C 6.234375 -8.863281 6.101562 -8.773438 6.03125 -8.578125 C 5.957031 -8.378906 5.914062 -8.222656 5.90625 -8.109375 C 5.863281 -7.816406 5.789062 -7.398438 5.6875 -6.859375 C 5.59375 -6.316406 5.484375 -5.71875 5.359375 -5.0625 C 5.242188 -4.414062 5.128906 -3.765625 5.015625 -3.109375 C 4.910156 -2.460938 4.820312 -1.867188 4.75 -1.328125 C 4.675781 -0.796875 4.632812 -0.390625 4.625 -0.109375 C 4.625 -0.0351562 4.601562 0 4.5625 0 L 0.453125 0 C 0.390625 0 0.367188 -0.0390625 0.390625 -0.125 C 0.398438 -0.175781 0.40625 -0.234375 0.40625 -0.296875 C 0.414062 -0.359375 0.429688 -0.414062 0.453125 -0.46875 C 0.472656 -0.59375 0.523438 -0.851562 0.609375 -1.25 C 0.691406 -1.644531 0.78125 -2.09375 0.875 -2.59375 C 0.976562 -3.101562 1.078125 -3.59375 1.171875 -4.0625 C 1.273438 -4.53125 1.359375 -4.890625 1.421875 -5.140625 C 1.453125 -5.316406 1.503906 -5.613281 1.578125 -6.03125 C 1.648438 -6.457031 1.726562 -6.945312 1.8125 -7.5 C 1.90625 -8.050781 2 -8.613281 2.09375 -9.1875 C 2.1875 -9.757812 2.269531 -10.300781 2.34375 -10.8125 C 2.425781 -11.332031 2.492188 -11.757812 2.546875 -12.09375 C 2.597656 -12.4375 2.625 -12.644531 2.625 -12.71875 C 2.632812 -12.769531 2.660156 -12.796875 2.703125 -12.796875 L 10.109375 -12.796875 C 10.140625 -12.796875 10.160156 -12.769531 10.171875 -12.71875 C 10.203125 -12.582031 10.253906 -12.300781 10.328125 -11.875 C 10.398438 -11.445312 10.476562 -10.96875 10.5625 -10.4375 C 10.65625 -9.90625 10.738281 -9.398438 10.8125 -8.921875 C 10.894531 -8.441406 10.96875 -8.066406 11.03125 -7.796875 C 11.125 -7.253906 11.207031 -6.707031 11.28125 -6.15625 C 11.363281 -5.613281 11.445312 -5.070312 11.53125 -4.53125 C 11.5625 -4.425781 11.597656 -4.21875 11.640625 -3.90625 C 11.691406 -3.601562 11.753906 -3.257812 11.828125 -2.875 C 11.898438 -2.488281 11.96875 -2.097656 12.03125 -1.703125 C 12.101562 -1.316406 12.171875 -0.976562 12.234375 -0.6875 C 12.296875 -0.40625 12.332031 -0.21875 12.34375 -0.125 C 12.375 -0.0390625 12.351562 0 12.28125 0 Z M 12.28125 0 "/></g></g></g><g fill="#000000" fill-opacity="1"><g transform="translate(148.363067, 212.183014)"><g><path d="M 11.9375 -2.0625 C 11.9375 -1.957031 11.941406 -1.800781 11.953125 -1.59375 C 11.960938 -1.394531 11.96875 -1.179688 11.96875 -0.953125 C 11.976562 -0.734375 11.984375 -0.539062 11.984375 -0.375 C 11.992188 -0.21875 12 -0.140625 12 -0.140625 C 12 -0.046875 11.957031 0 11.875 0 L 0.671875 0 C 0.597656 0 0.5625 -0.046875 0.5625 -0.140625 L 0.5625 -0.46875 C 0.5625 -0.476562 0.5625 -0.484375 0.5625 -0.484375 C 0.5625 -0.515625 0.5625 -0.539062 0.5625 -0.5625 L 0.5625 -6.921875 C 0.5625 -7.441406 0.5625 -7.96875 0.5625 -8.5 C 0.5625 -9.03125 0.578125 -9.5625 0.609375 -10.09375 C 0.609375 -10.5625 0.601562 -11.03125 0.59375 -11.5 C 0.59375 -11.695312 0.585938 -11.890625 0.578125 -12.078125 C 0.566406 -12.273438 0.570312 -12.472656 0.59375 -12.671875 C 0.601562 -12.753906 0.644531 -12.796875 0.71875 -12.796875 L 6.421875 -12.796875 C 6.492188 -12.796875 6.53125 -12.75 6.53125 -12.65625 C 6.53125 -12.21875 6.539062 -11.785156 6.5625 -11.359375 C 6.59375 -10.929688 6.613281 -10.5 6.625 -10.0625 C 6.644531 -9.78125 6.65625 -9.5 6.65625 -9.21875 C 6.65625 -8.945312 6.65625 -8.675781 6.65625 -8.40625 C 6.664062 -8.207031 6.660156 -7.925781 6.640625 -7.5625 C 6.628906 -7.207031 6.617188 -6.859375 6.609375 -6.515625 C 6.597656 -6.179688 6.597656 -5.960938 6.609375 -5.859375 C 6.609375 -5.679688 6.609375 -5.5 6.609375 -5.3125 C 6.609375 -5.125 6.65625 -4.96875 6.75 -4.84375 C 6.800781 -4.757812 6.957031 -4.703125 7.21875 -4.671875 C 7.476562 -4.648438 7.75 -4.640625 8.03125 -4.640625 C 8.320312 -4.640625 8.535156 -4.640625 8.671875 -4.640625 C 8.804688 -4.640625 9.015625 -4.640625 9.296875 -4.640625 C 9.578125 -4.648438 9.882812 -4.660156 10.21875 -4.671875 C 10.550781 -4.691406 10.867188 -4.707031 11.171875 -4.71875 C 11.484375 -4.726562 11.726562 -4.734375 11.90625 -4.734375 C 11.96875 -4.722656 11.992188 -4.6875 11.984375 -4.625 C 11.984375 -4.59375 11.984375 -4.488281 11.984375 -4.3125 C 11.984375 -4.132812 11.976562 -3.953125 11.96875 -3.765625 C 11.96875 -3.578125 11.96875 -3.4375 11.96875 -3.34375 C 11.945312 -3.125 11.9375 -2.90625 11.9375 -2.6875 C 11.9375 -2.46875 11.9375 -2.257812 11.9375 -2.0625 Z M 11.9375 -2.0625 "/></g></g></g><g fill="#000000" fill-opacity="1"><g transform="translate(160.90793, 212.183014)"><g><path d="M 11.9375 -2.0625 C 11.9375 -1.957031 11.941406 -1.800781 11.953125 -1.59375 C 11.960938 -1.394531 11.96875 -1.179688 11.96875 -0.953125 C 11.976562 -0.734375 11.984375 -0.539062 11.984375 -0.375 C 11.992188 -0.21875 12 -0.140625 12 -0.140625 C 12 -0.046875 11.957031 0 11.875 0 L 0.671875 0 C 0.597656 0 0.5625 -0.046875 0.5625 -0.140625 L 0.5625 -0.46875 C 0.5625 -0.476562 0.5625 -0.484375 0.5625 -0.484375 C 0.5625 -0.515625 0.5625 -0.539062 0.5625 -0.5625 L 0.5625 -6.921875 C 0.5625 -7.441406 0.5625 -7.96875 0.5625 -8.5 C 0.5625 -9.03125 0.578125 -9.5625 0.609375 -10.09375 C 0.609375 -10.5625 0.601562 -11.03125 0.59375 -11.5 C 0.59375 -11.695312 0.585938 -11.890625 0.578125 -12.078125 C 0.566406 -12.273438 0.570312 -12.472656 0.59375 -12.671875 C 0.601562 -12.753906 0.644531 -12.796875 0.71875 -12.796875 L 6.421875 -12.796875 C 6.492188 -12.796875 6.53125 -12.75 6.53125 -12.65625 C 6.53125 -12.21875 6.539062 -11.785156 6.5625 -11.359375 C 6.59375 -10.929688 6.613281 -10.5 6.625 -10.0625 C 6.644531 -9.78125 6.65625 -9.5 6.65625 -9.21875 C 6.65625 -8.945312 6.65625 -8.675781 6.65625 -8.40625 C 6.664062 -8.207031 6.660156 -7.925781 6.640625 -7.5625 C 6.628906 -7.207031 6.617188 -6.859375 6.609375 -6.515625 C 6.597656 -6.179688 6.597656 -5.960938 6.609375 -5.859375 C 6.609375 -5.679688 6.609375 -5.5 6.609375 -5.3125 C 6.609375 -5.125 6.65625 -4.96875 6.75 -4.84375 C 6.800781 -4.757812 6.957031 -4.703125 7.21875 -4.671875 C 7.476562 -4.648438 7.75 -4.640625 8.03125 -4.640625 C 8.320312 -4.640625 8.535156 -4.640625 8.671875 -4.640625 C 8.804688 -4.640625 9.015625 -4.640625 9.296875 -4.640625 C 9.578125 -4.648438 9.882812 -4.660156 10.21875 -4.671875 C 10.550781 -4.691406 10.867188 -4.707031 11.171875 -4.71875 C 11.484375 -4.726562 11.726562 -4.734375 11.90625 -4.734375 C 11.96875 -4.722656 11.992188 -4.6875 11.984375 -4.625 C 11.984375 -4.59375 11.984375 -4.488281 11.984375 -4.3125 C 11.984375 -4.132812 11.976562 -3.953125 11.96875 -3.765625 C 11.96875 -3.578125 11.96875 -3.4375 11.96875 -3.34375 C 11.945312 -3.125 11.9375 -2.90625 11.9375 -2.6875 C 11.9375 -2.46875 11.9375 -2.257812 11.9375 -2.0625 Z M 11.9375 -2.0625 "/></g></g></g><g fill="#000000" fill-opacity="1"><g transform="translate(173.452794, 212.183014)"><g/></g></g><g fill="#000000" fill-opacity="1"><g transform="translate(177.112557, 212.183014)"><g><path d="M 11.90625 -5.390625 C 11.90625 -5.222656 11.898438 -4.972656 11.890625 -4.640625 C 11.878906 -4.316406 11.867188 -3.953125 11.859375 -3.546875 C 11.859375 -3.148438 11.859375 -2.757812 11.859375 -2.375 C 11.867188 -2 11.890625 -1.679688 11.921875 -1.421875 L 11.921875 -0.203125 C 11.921875 -0.0664062 11.851562 0 11.71875 0 L 6.953125 0 C 6.097656 0 5.398438 -0.0507812 4.859375 -0.15625 C 4.316406 -0.257812 3.882812 -0.382812 3.5625 -0.53125 C 3.25 -0.675781 3 -0.804688 2.8125 -0.921875 C 2.519531 -1.097656 2.238281 -1.300781 1.96875 -1.53125 C 1.695312 -1.757812 1.484375 -2.003906 1.328125 -2.265625 C 0.972656 -2.828125 0.742188 -3.332031 0.640625 -3.78125 C 0.535156 -4.238281 0.484375 -4.691406 0.484375 -5.140625 L 0.484375 -7.59375 C 0.484375 -7.59375 0.484375 -7.550781 0.484375 -7.46875 C 0.484375 -7.394531 0.484375 -7.320312 0.484375 -7.25 C 0.484375 -7.1875 0.484375 -7.175781 0.484375 -7.21875 C 0.484375 -7.257812 0.484375 -7.390625 0.484375 -7.609375 C 0.484375 -8.054688 0.515625 -8.488281 0.578125 -8.90625 C 0.648438 -9.332031 0.75 -9.71875 0.875 -10.0625 C 0.976562 -10.40625 1.144531 -10.710938 1.375 -10.984375 C 1.613281 -11.253906 1.859375 -11.519531 2.109375 -11.78125 C 2.398438 -12.039062 2.769531 -12.242188 3.21875 -12.390625 C 3.664062 -12.535156 4.148438 -12.640625 4.671875 -12.703125 C 5.191406 -12.765625 5.703125 -12.796875 6.203125 -12.796875 L 11.59375 -12.796875 C 11.644531 -12.796875 11.710938 -12.757812 11.796875 -12.6875 C 11.878906 -12.613281 11.921875 -12.546875 11.921875 -12.484375 L 11.921875 -11.453125 C 11.910156 -11.398438 11.898438 -11.34375 11.890625 -11.28125 C 11.878906 -11.226562 11.875 -11.175781 11.875 -11.125 C 11.863281 -11 11.859375 -10.75 11.859375 -10.375 C 11.867188 -10.007812 11.878906 -9.613281 11.890625 -9.1875 C 11.898438 -8.757812 11.90625 -8.390625 11.90625 -8.078125 C 11.914062 -7.765625 11.921875 -7.609375 11.921875 -7.609375 C 11.921875 -7.472656 11.859375 -7.40625 11.734375 -7.40625 C 11.617188 -7.414062 11.394531 -7.414062 11.0625 -7.40625 C 10.726562 -7.40625 10.335938 -7.398438 9.890625 -7.390625 C 9.453125 -7.390625 9.019531 -7.378906 8.59375 -7.359375 C 8.164062 -7.347656 7.789062 -7.335938 7.46875 -7.328125 C 7.15625 -7.328125 6.960938 -7.328125 6.890625 -7.328125 C 6.484375 -7.328125 6.191406 -7.234375 6.015625 -7.046875 C 5.835938 -6.867188 5.75 -6.695312 5.75 -6.53125 C 5.75 -6.1875 5.890625 -5.9375 6.171875 -5.78125 C 6.398438 -5.644531 6.582031 -5.566406 6.71875 -5.546875 C 6.863281 -5.523438 7.066406 -5.5 7.328125 -5.46875 C 7.484375 -5.457031 7.734375 -5.453125 8.078125 -5.453125 C 8.429688 -5.453125 8.8125 -5.453125 9.21875 -5.453125 C 9.625 -5.460938 10.007812 -5.472656 10.375 -5.484375 C 10.75 -5.492188 11.0625 -5.5 11.3125 -5.5 C 11.570312 -5.507812 11.707031 -5.515625 11.71875 -5.515625 C 11.8125 -5.515625 11.875 -5.472656 11.90625 -5.390625 Z M 11.90625 -5.390625 "/></g></g></g><g fill="#000000" fill-opacity="1"><g transform="translate(189.637096, 212.183014)"><g><path d="M 11.796875 -8.84375 C 11.796875 -8.5 11.796875 -8.070312 11.796875 -7.5625 C 11.796875 -7.0625 11.796875 -6.5625 11.796875 -6.0625 C 11.796875 -5.5625 11.796875 -5.140625 11.796875 -4.796875 C 11.796875 -4.265625 11.726562 -3.8125 11.59375 -3.4375 C 11.46875 -3.0625 11.304688 -2.679688 11.109375 -2.296875 C 10.929688 -1.972656 10.710938 -1.6875 10.453125 -1.4375 C 10.191406 -1.1875 9.921875 -0.972656 9.640625 -0.796875 C 9.285156 -0.578125 8.925781 -0.390625 8.5625 -0.234375 C 8.207031 -0.0859375 7.734375 -0.015625 7.140625 -0.015625 C 7.054688 -0.015625 6.875 -0.015625 6.59375 -0.015625 C 6.320312 -0.015625 6.019531 -0.015625 5.6875 -0.015625 C 5.363281 -0.015625 5.078125 -0.015625 4.828125 -0.015625 C 4.578125 -0.015625 4.445312 -0.015625 4.4375 -0.015625 C 3.875 -0.046875 3.347656 -0.1875 2.859375 -0.4375 C 2.378906 -0.6875 1.988281 -0.960938 1.6875 -1.265625 C 1.519531 -1.421875 1.34375 -1.65625 1.15625 -1.96875 C 0.976562 -2.28125 0.828125 -2.601562 0.703125 -2.9375 C 0.585938 -3.28125 0.53125 -3.582031 0.53125 -3.84375 C 0.53125 -4.03125 0.53125 -4.34375 0.53125 -4.78125 C 0.53125 -5.21875 0.53125 -5.695312 0.53125 -6.21875 C 0.53125 -6.75 0.53125 -7.257812 0.53125 -7.75 C 0.53125 -8.238281 0.53125 -8.632812 0.53125 -8.9375 C 0.53125 -9.519531 0.617188 -10.03125 0.796875 -10.46875 C 0.984375 -10.90625 1.195312 -11.253906 1.4375 -11.515625 C 1.875 -11.972656 2.285156 -12.28125 2.671875 -12.4375 C 3.054688 -12.59375 3.53125 -12.707031 4.09375 -12.78125 C 4.101562 -12.789062 4.25 -12.789062 4.53125 -12.78125 C 4.820312 -12.78125 5.171875 -12.78125 5.578125 -12.78125 C 5.992188 -12.78125 6.410156 -12.78125 6.828125 -12.78125 C 7.242188 -12.78125 7.578125 -12.78125 7.828125 -12.78125 C 8.359375 -12.78125 8.847656 -12.703125 9.296875 -12.546875 C 9.742188 -12.398438 10.148438 -12.148438 10.515625 -11.796875 C 10.898438 -11.441406 11.207031 -10.988281 11.4375 -10.4375 C 11.675781 -9.894531 11.796875 -9.363281 11.796875 -8.84375 Z M 5.328125 -5.1875 C 5.328125 -4.65625 5.394531 -4.304688 5.53125 -4.140625 C 5.675781 -3.972656 5.859375 -3.890625 6.078125 -3.890625 C 6.347656 -3.890625 6.515625 -4.007812 6.578125 -4.25 C 6.648438 -4.5 6.6875 -4.695312 6.6875 -4.84375 C 6.6875 -5.351562 6.695312 -5.894531 6.71875 -6.46875 C 6.738281 -7.039062 6.742188 -7.515625 6.734375 -7.890625 C 6.703125 -8.203125 6.648438 -8.46875 6.578125 -8.6875 C 6.515625 -8.90625 6.347656 -9.015625 6.078125 -9.015625 C 5.835938 -9.015625 5.664062 -8.945312 5.5625 -8.8125 C 5.457031 -8.6875 5.390625 -8.535156 5.359375 -8.359375 C 5.335938 -8.191406 5.328125 -8.054688 5.328125 -7.953125 C 5.328125 -7.816406 5.328125 -7.59375 5.328125 -7.28125 C 5.328125 -6.976562 5.328125 -6.640625 5.328125 -6.265625 C 5.328125 -5.890625 5.328125 -5.53125 5.328125 -5.1875 Z M 5.328125 -5.1875 "/></g></g></g><g fill="#000000" fill-opacity="1"><g transform="translate(201.998981, 212.183014)"><g><path d="M 11.921875 -5.984375 C 11.921875 -5.535156 11.894531 -5.066406 11.84375 -4.578125 C 11.800781 -4.085938 11.738281 -3.722656 11.65625 -3.484375 C 11.65625 -3.484375 11.582031 -3.296875 11.4375 -2.921875 C 11.300781 -2.554688 11.082031 -2.191406 10.78125 -1.828125 C 10.632812 -1.671875 10.378906 -1.457031 10.015625 -1.1875 C 9.660156 -0.925781 9.304688 -0.71875 8.953125 -0.5625 C 8.515625 -0.394531 8.085938 -0.269531 7.671875 -0.1875 C 7.265625 -0.101562 6.976562 -0.0625 6.8125 -0.0625 C 6.6875 -0.0507812 6.492188 -0.0390625 6.234375 -0.03125 C 5.984375 -0.0195312 5.726562 -0.015625 5.46875 -0.015625 C 5.21875 -0.015625 5.03125 -0.015625 4.90625 -0.015625 C 4.882812 -0.015625 4.734375 -0.0078125 4.453125 0 C 4.179688 0 3.84375 0 3.4375 0 C 3.03125 0 2.625 0 2.21875 0 C 1.8125 0 1.472656 0 1.203125 0 C 0.929688 0 0.796875 0 0.796875 0 C 0.660156 0 0.597656 -0.0664062 0.609375 -0.203125 C 0.640625 -0.304688 0.65625 -0.554688 0.65625 -0.953125 C 0.664062 -1.347656 0.671875 -1.800781 0.671875 -2.3125 C 0.671875 -2.820312 0.671875 -3.304688 0.671875 -3.765625 C 0.671875 -4.234375 0.664062 -4.601562 0.65625 -4.875 C 0.632812 -5.476562 0.609375 -6.078125 0.578125 -6.671875 C 0.554688 -7.265625 0.539062 -7.863281 0.53125 -8.46875 L 0.53125 -11.96875 C 0.539062 -12.175781 0.550781 -12.398438 0.5625 -12.640625 C 0.5625 -12.742188 0.617188 -12.796875 0.734375 -12.796875 L 6.265625 -12.796875 C 6.265625 -12.796875 6.195312 -12.796875 6.0625 -12.796875 C 5.9375 -12.796875 5.816406 -12.796875 5.703125 -12.796875 C 5.597656 -12.796875 5.570312 -12.796875 5.625 -12.796875 C 5.6875 -12.796875 5.90625 -12.796875 6.28125 -12.796875 C 7.039062 -12.796875 7.707031 -12.71875 8.28125 -12.5625 C 8.851562 -12.40625 9.441406 -12.078125 10.046875 -11.578125 C 10.484375 -11.234375 10.816406 -10.820312 11.046875 -10.34375 C 11.285156 -9.875 11.457031 -9.4375 11.5625 -9.03125 C 11.664062 -8.632812 11.734375 -8.363281 11.765625 -8.21875 C 11.785156 -8.070312 11.804688 -7.847656 11.828125 -7.546875 C 11.859375 -7.242188 11.878906 -6.941406 11.890625 -6.640625 C 11.910156 -6.347656 11.921875 -6.128906 11.921875 -5.984375 Z M 6.625 -5.171875 C 6.65625 -5.316406 6.671875 -5.523438 6.671875 -5.796875 C 6.679688 -6.078125 6.679688 -6.363281 6.671875 -6.65625 C 6.671875 -6.945312 6.664062 -7.175781 6.65625 -7.34375 C 6.601562 -7.820312 6.507812 -8.128906 6.375 -8.265625 C 6.238281 -8.410156 6.109375 -8.484375 5.984375 -8.484375 C 5.859375 -8.484375 5.769531 -8.429688 5.71875 -8.328125 C 5.664062 -8.222656 5.640625 -8.007812 5.640625 -7.6875 L 5.640625 -5.1875 C 5.640625 -4.945312 5.65625 -4.734375 5.6875 -4.546875 C 5.71875 -4.359375 5.820312 -4.265625 6 -4.265625 C 6.1875 -4.265625 6.320312 -4.328125 6.40625 -4.453125 C 6.488281 -4.585938 6.5625 -4.828125 6.625 -5.171875 Z M 6.625 -5.171875 "/></g></g></g><g fill="#000000" fill-opacity="1"><g transform="translate(214.442187, 212.183014)"><g><path d="M 11.859375 -3.375 C 11.859375 -3.195312 11.859375 -3.003906 11.859375 -2.796875 C 11.859375 -2.585938 11.859375 -2.410156 11.859375 -2.265625 C 11.859375 -2.148438 11.859375 -1.984375 11.859375 -1.765625 C 11.867188 -1.546875 11.878906 -1.3125 11.890625 -1.0625 C 11.910156 -0.8125 11.921875 -0.597656 11.921875 -0.421875 C 11.929688 -0.242188 11.9375 -0.15625 11.9375 -0.15625 C 11.9375 -0.0507812 11.882812 0 11.78125 0 L 0.765625 0 C 0.578125 0 0.492188 -0.09375 0.515625 -0.28125 C 0.546875 -1.300781 0.566406 -2.320312 0.578125 -3.34375 C 0.585938 -4.363281 0.597656 -5.390625 0.609375 -6.421875 C 0.617188 -7.429688 0.65625 -8.441406 0.71875 -9.453125 C 0.78125 -10.472656 0.738281 -11.484375 0.59375 -12.484375 C 0.570312 -12.566406 0.585938 -12.640625 0.640625 -12.703125 C 0.703125 -12.765625 0.773438 -12.796875 0.859375 -12.796875 L 11.703125 -12.796875 C 11.773438 -12.796875 11.828125 -12.753906 11.859375 -12.671875 C 11.859375 -12.660156 11.851562 -12.597656 11.84375 -12.484375 C 11.84375 -12.378906 11.832031 -12.273438 11.8125 -12.171875 C 11.8125 -12.097656 11.804688 -11.9375 11.796875 -11.6875 C 11.785156 -11.445312 11.773438 -11.191406 11.765625 -10.921875 C 11.765625 -10.660156 11.765625 -10.460938 11.765625 -10.328125 C 11.765625 -10.191406 11.769531 -10.023438 11.78125 -9.828125 C 11.789062 -9.640625 11.804688 -9.46875 11.828125 -9.3125 C 11.847656 -9.15625 11.859375 -9.078125 11.859375 -9.078125 C 11.859375 -8.960938 11.796875 -8.90625 11.671875 -8.90625 C 11.671875 -8.90625 11.539062 -8.910156 11.28125 -8.921875 C 11.019531 -8.929688 10.679688 -8.9375 10.265625 -8.9375 C 9.859375 -8.9375 9.425781 -8.9375 8.96875 -8.9375 C 8.519531 -8.9375 8.101562 -8.925781 7.71875 -8.90625 C 7.332031 -8.894531 7.03125 -8.875 6.8125 -8.84375 C 6.613281 -8.820312 6.40625 -8.765625 6.1875 -8.671875 C 5.976562 -8.578125 5.863281 -8.40625 5.84375 -8.15625 C 5.820312 -8.007812 5.863281 -7.882812 5.96875 -7.78125 C 6.082031 -7.675781 6.203125 -7.597656 6.328125 -7.546875 C 6.390625 -7.535156 6.597656 -7.519531 6.953125 -7.5 C 7.316406 -7.488281 7.75 -7.484375 8.25 -7.484375 C 8.757812 -7.484375 9.265625 -7.484375 9.765625 -7.484375 C 10.273438 -7.492188 10.707031 -7.5 11.0625 -7.5 C 11.414062 -7.5 11.617188 -7.5 11.671875 -7.5 C 11.796875 -7.5 11.859375 -7.445312 11.859375 -7.34375 L 11.859375 -5.65625 C 11.859375 -5.507812 11.859375 -5.378906 11.859375 -5.265625 C 11.859375 -5.160156 11.859375 -5.046875 11.859375 -4.921875 C 11.859375 -4.816406 11.796875 -4.765625 11.671875 -4.765625 C 11.441406 -4.765625 11.117188 -4.765625 10.703125 -4.765625 C 10.296875 -4.773438 9.867188 -4.785156 9.421875 -4.796875 C 8.984375 -4.816406 8.585938 -4.828125 8.234375 -4.828125 C 7.878906 -4.835938 7.644531 -4.84375 7.53125 -4.84375 C 7.394531 -4.832031 7.226562 -4.828125 7.03125 -4.828125 C 6.832031 -4.828125 6.644531 -4.796875 6.46875 -4.734375 C 6.289062 -4.679688 6.160156 -4.578125 6.078125 -4.421875 C 5.941406 -4.160156 5.960938 -3.941406 6.140625 -3.765625 C 6.316406 -3.597656 6.515625 -3.488281 6.734375 -3.4375 C 6.867188 -3.40625 7.144531 -3.390625 7.5625 -3.390625 C 7.988281 -3.390625 8.46875 -3.398438 9 -3.421875 C 9.539062 -3.441406 10.054688 -3.460938 10.546875 -3.484375 C 11.046875 -3.503906 11.421875 -3.523438 11.671875 -3.546875 C 11.796875 -3.546875 11.859375 -3.488281 11.859375 -3.375 Z M 11.859375 -3.375 "/></g></g></g><g fill="#000000" fill-opacity="1"><g transform="translate(226.94639, 212.183014)"><g><path d="M 11.796875 -12.796875 C 11.804688 -12.785156 11.820312 -12.765625 11.84375 -12.734375 C 11.863281 -12.460938 11.867188 -12.234375 11.859375 -12.046875 C 11.859375 -11.867188 11.847656 -11.664062 11.828125 -11.4375 C 11.816406 -11.21875 11.8125 -10.882812 11.8125 -10.4375 C 11.8125 -10.269531 11.828125 -10.03125 11.859375 -9.71875 C 11.890625 -9.40625 11.910156 -9.171875 11.921875 -9.015625 C 11.921875 -8.890625 11.859375 -8.828125 11.734375 -8.828125 C 11.273438 -8.835938 10.742188 -8.859375 10.140625 -8.890625 C 9.546875 -8.929688 8.988281 -8.960938 8.46875 -8.984375 C 7.945312 -9.015625 7.570312 -9.03125 7.34375 -9.03125 C 6.84375 -9.019531 6.40625 -8.976562 6.03125 -8.90625 C 5.65625 -8.84375 5.46875 -8.6875 5.46875 -8.4375 C 5.46875 -8.1875 5.539062 -8.03125 5.6875 -7.96875 C 5.832031 -7.914062 5.957031 -7.882812 6.0625 -7.875 C 6.425781 -7.800781 6.726562 -7.773438 6.96875 -7.796875 C 7.21875 -7.816406 7.5625 -7.816406 8 -7.796875 C 8.445312 -7.765625 8.882812 -7.703125 9.3125 -7.609375 C 9.75 -7.515625 10.140625 -7.320312 10.484375 -7.03125 C 10.671875 -6.875 10.875 -6.671875 11.09375 -6.421875 C 11.320312 -6.171875 11.515625 -5.804688 11.671875 -5.328125 C 11.828125 -4.859375 11.90625 -4.1875 11.90625 -3.3125 C 11.90625 -3.125 11.859375 -2.847656 11.765625 -2.484375 C 11.679688 -2.117188 11.507812 -1.738281 11.25 -1.34375 C 11.125 -1.164062 10.925781 -0.972656 10.65625 -0.765625 C 10.382812 -0.554688 10.082031 -0.394531 9.75 -0.28125 C 9.300781 -0.144531 8.851562 -0.0703125 8.40625 -0.0625 C 7.957031 -0.0507812 7.628906 -0.046875 7.421875 -0.046875 C 7.367188 -0.046875 7.171875 -0.0390625 6.828125 -0.03125 C 6.484375 -0.0195312 6.054688 -0.015625 5.546875 -0.015625 C 5.035156 -0.015625 4.5 -0.0078125 3.9375 0 C 3.382812 0 2.859375 0 2.359375 0 C 1.867188 0 1.472656 0 1.171875 0 C 0.867188 0 0.71875 0 0.71875 0 C 0.59375 0 0.53125 -0.0507812 0.53125 -0.15625 C 0.53125 -0.320312 0.53125 -0.484375 0.53125 -0.640625 C 0.539062 -0.804688 0.550781 -0.972656 0.5625 -1.140625 C 0.59375 -1.546875 0.601562 -1.953125 0.59375 -2.359375 C 0.59375 -2.773438 0.59375 -3.1875 0.59375 -3.59375 C 0.59375 -3.71875 0.648438 -3.773438 0.765625 -3.765625 C 0.921875 -3.753906 1.101562 -3.75 1.3125 -3.75 C 1.519531 -3.75 1.710938 -3.742188 1.890625 -3.734375 C 2.066406 -3.722656 2.179688 -3.71875 2.234375 -3.71875 C 2.441406 -3.707031 2.71875 -3.695312 3.0625 -3.6875 C 3.414062 -3.6875 3.789062 -3.691406 4.1875 -3.703125 C 4.582031 -3.710938 4.953125 -3.726562 5.296875 -3.75 C 5.640625 -3.78125 5.910156 -3.828125 6.109375 -3.890625 C 6.390625 -3.953125 6.535156 -4.128906 6.546875 -4.421875 C 6.566406 -4.578125 6.488281 -4.6875 6.3125 -4.75 C 6.144531 -4.8125 5.9375 -4.84375 5.6875 -4.84375 C 5.445312 -4.84375 5.203125 -4.832031 4.953125 -4.8125 C 4.710938 -4.789062 4.523438 -4.78125 4.390625 -4.78125 C 3.960938 -4.75 3.539062 -4.765625 3.125 -4.828125 C 2.707031 -4.890625 2.316406 -5.046875 1.953125 -5.296875 C 1.679688 -5.460938 1.441406 -5.6875 1.234375 -5.96875 C 1.023438 -6.25 0.863281 -6.535156 0.75 -6.828125 C 0.519531 -7.441406 0.4375 -8.082031 0.5 -8.75 C 0.5625 -9.414062 0.726562 -10.046875 1 -10.640625 C 1.15625 -10.992188 1.351562 -11.3125 1.59375 -11.59375 C 1.84375 -11.875 2.140625 -12.097656 2.484375 -12.265625 C 2.765625 -12.398438 3.054688 -12.519531 3.359375 -12.625 C 3.671875 -12.738281 3.984375 -12.796875 4.296875 -12.796875 Z M 11.796875 -12.796875 "/></g></g></g></svg>